<svg width="224" height="199" viewBox="0 0 224 199" fill="none" xmlns="http://www.w3.org/2000/svg">
<path d="M9.76 113.662V111.742H21.536L39.968 150.91L37.856 155.774H29.536L9.76 113.662ZM45.92 137.278H45.664L41.376 147.646L35.872 135.87L45.92 111.742H58.08V155.774H45.92V137.278ZM9.76 119.998L21.536 145.086V155.774H9.76V119.998ZM75.485 156.222C71.645 156.222 69.0637 155.049 67.741 152.702C67.1437 151.678 66.7383 150.441 66.525 148.99C66.3117 147.497 66.205 145.684 66.205 143.55V123.134H78.045V138.558C78.045 140.82 78.0663 142.313 78.109 143.038C78.1943 144.105 78.3223 144.873 78.493 145.342C78.6637 145.812 78.941 146.11 79.325 146.238C79.709 146.324 80.3917 146.366 81.373 146.366H82.013V154.366C80.349 155.604 78.173 156.222 75.485 156.222ZM84.701 123.134H96.541V155.774H84.701V123.134ZM128.485 132.03C127.674 131.988 126.565 131.881 125.157 131.71C122.512 131.454 120.378 131.326 118.757 131.326H116.645V122.622C119.674 122.622 122.554 122.836 125.285 123.262L128.485 123.838V132.03ZM119.205 145.854C119.205 145.214 119.098 144.809 118.885 144.638C118.672 144.468 118.224 144.34 117.541 144.254L110.629 143.294C108.922 143.038 107.536 142.633 106.469 142.078C105.445 141.524 104.677 140.777 104.165 139.838C103.653 139.028 103.312 138.046 103.141 136.894C102.97 135.742 102.885 134.313 102.885 132.606C102.885 129.108 103.93 126.548 106.021 124.926C107.77 123.646 110.416 122.9 113.957 122.686V132.734C113.957 133.374 114.042 133.801 114.213 134.014C114.384 134.185 114.917 134.334 115.813 134.462L123.493 135.486C124.602 135.614 125.562 135.849 126.373 136.19C127.184 136.489 127.866 136.958 128.421 137.598C129.658 138.964 130.277 141.588 130.277 145.47C130.277 149.566 129.232 152.425 127.141 154.046C125.306 155.412 122.661 156.137 119.205 156.222V145.854ZM116.517 156.286C113.104 156.244 110.117 156.03 107.557 155.646L103.909 155.07V146.878C105.616 147.049 107.92 147.22 110.821 147.39C112.442 147.476 113.594 147.518 114.277 147.518H116.517V156.286ZM157.812 131.902C156.745 131.732 155.209 131.646 153.204 131.646C151.881 131.646 150.943 131.732 150.388 131.902V122.622C153.417 122.665 156.553 123.049 159.796 123.774V132.094L157.812 131.902ZM149.94 156.286C146.612 156.286 143.967 155.881 142.004 155.07C140.041 154.26 138.591 153.065 137.652 151.486C136.799 150.121 136.244 148.521 135.988 146.686C135.775 144.852 135.668 142.462 135.668 139.518C135.668 136.83 135.775 134.59 135.988 132.798C136.201 131.006 136.649 129.428 137.332 128.062C138.143 126.484 139.359 125.268 140.98 124.414C142.644 123.518 144.884 122.964 147.7 122.75V139.454C147.7 141.332 147.743 142.74 147.828 143.678C147.956 144.617 148.191 145.342 148.532 145.854C148.916 146.366 149.449 146.729 150.132 146.942C150.857 147.156 151.881 147.262 153.204 147.262C155.465 147.262 157.023 147.198 157.876 147.07L160.052 146.814V155.134C156.895 155.902 153.524 156.286 149.94 156.286ZM166.838 108.222H178.678V155.774H166.838V108.222ZM199.927 136.254H204.407C204.407 133.865 204.172 132.329 203.703 131.646C203.447 131.262 203.106 131.028 202.679 130.942C202.252 130.814 201.634 130.75 200.823 130.75H199.927V122.622H200.823C204.492 122.622 207.308 122.921 209.271 123.518C211.276 124.116 212.748 125.097 213.687 126.462C214.54 127.657 215.052 129.193 215.223 131.07C215.436 132.948 215.543 135.764 215.543 139.518V142.078H199.927V136.254ZM202.103 156.286C198.178 156.286 195.084 155.966 192.823 155.326C190.604 154.644 188.94 153.577 187.831 152.126C186.85 150.846 186.21 149.268 185.911 147.39C185.612 145.47 185.463 142.846 185.463 139.518C185.463 136.446 185.57 134.014 185.783 132.222C185.996 130.388 186.444 128.83 187.127 127.55C187.895 126.142 189.068 125.054 190.647 124.286C192.268 123.476 194.466 122.964 197.239 122.75V142.078C197.239 143.529 197.303 144.574 197.431 145.214C197.559 145.812 197.858 146.26 198.327 146.558C198.839 146.9 199.628 147.092 200.695 147.134C202.06 147.22 203.511 147.262 205.047 147.262C207.778 147.262 209.762 147.198 210.999 147.07L214.263 146.814V155.07C212.556 155.582 210.21 155.924 207.223 156.094C205.772 156.222 204.066 156.286 202.103 156.286ZM27.99 152.662V150.742H39.766L58.198 189.91L56.086 194.774H47.766L27.99 152.662ZM64.15 176.278H63.894L59.606 186.646L54.102 174.87L64.15 150.742H76.31V194.774H64.15V176.278ZM27.99 158.998L39.766 184.086V194.774H27.99V158.998ZM98.267 174.55C98.267 173.441 98.2243 172.652 98.139 172.182C98.0537 171.713 97.7977 171.372 97.371 171.158C96.987 170.945 96.2617 170.796 95.195 170.71C94.555 170.668 93.1683 170.646 91.035 170.646C88.987 170.646 87.0883 170.732 85.339 170.902L81.947 171.094V162.774C85.9577 162.006 90.2883 161.622 94.939 161.622C98.523 161.622 101.318 161.878 103.323 162.39C105.371 162.902 106.907 163.713 107.931 164.822C108.827 165.846 109.403 167.148 109.659 168.726C109.958 170.305 110.107 172.502 110.107 175.318V194.774H98.267V174.55ZM88.795 195.222C85.851 195.222 83.675 194.412 82.267 192.79C80.859 191.126 80.155 188.63 80.155 185.302C80.155 183.254 80.3043 181.612 80.603 180.374C80.9017 179.094 81.4137 178.092 82.139 177.366C82.8643 176.598 83.867 176.065 85.147 175.766C86.427 175.425 88.1123 175.254 90.203 175.254L95.579 175.382V181.078H94.939C93.9577 181.078 93.3177 181.1 93.019 181.142C92.1657 181.185 91.7177 181.59 91.675 182.358C91.6323 182.614 91.611 183.148 91.611 183.958C91.611 184.598 91.6323 185.089 91.675 185.43C91.7603 185.772 91.8883 186.049 92.059 186.262C92.2723 186.561 92.5923 186.732 93.019 186.774C93.6163 186.86 94.2563 186.902 94.939 186.902H95.579V193.43C94.6403 194.156 93.6377 194.625 92.571 194.838C91.547 195.094 90.2883 195.222 88.795 195.222ZM111.902 162.134H117.918V152.662H129.758V162.134H136.926V171.158H111.902V162.134ZM117.918 173.718H129.758V194.774H117.918V173.718ZM152.362 175.254H156.842C156.842 172.865 156.607 171.329 156.138 170.646C155.882 170.262 155.541 170.028 155.114 169.942C154.687 169.814 154.069 169.75 153.258 169.75H152.362V161.622H153.258C156.927 161.622 159.743 161.921 161.706 162.518C163.711 163.116 165.183 164.097 166.122 165.462C166.975 166.657 167.487 168.193 167.658 170.07C167.871 171.948 167.978 174.764 167.978 178.518V181.078H152.362V175.254ZM154.538 195.286C150.613 195.286 147.519 194.966 145.258 194.326C143.039 193.644 141.375 192.577 140.266 191.126C139.285 189.846 138.645 188.268 138.346 186.39C138.047 184.47 137.898 181.846 137.898 178.518C137.898 175.446 138.005 173.014 138.218 171.222C138.431 169.388 138.879 167.83 139.562 166.55C140.33 165.142 141.503 164.054 143.082 163.286C144.703 162.476 146.901 161.964 149.674 161.75V181.078C149.674 182.529 149.738 183.574 149.866 184.214C149.994 184.812 150.293 185.26 150.762 185.558C151.274 185.9 152.063 186.092 153.13 186.134C154.495 186.22 155.946 186.262 157.482 186.262C160.213 186.262 162.197 186.198 163.434 186.07L166.698 185.814V194.07C164.991 194.582 162.645 194.924 159.658 195.094C158.207 195.222 156.501 195.286 154.538 195.286ZM196.135 171.03C195.324 170.988 194.215 170.881 192.807 170.71C190.162 170.454 188.028 170.326 186.407 170.326H184.295V161.622C187.324 161.622 190.204 161.836 192.935 162.262L196.135 162.838V171.03ZM186.855 184.854C186.855 184.214 186.748 183.809 186.535 183.638C186.322 183.468 185.874 183.34 185.191 183.254L178.279 182.294C176.572 182.038 175.186 181.633 174.119 181.078C173.095 180.524 172.327 179.777 171.815 178.838C171.303 178.028 170.962 177.046 170.791 175.894C170.62 174.742 170.535 173.313 170.535 171.606C170.535 168.108 171.58 165.548 173.671 163.926C175.42 162.646 178.066 161.9 181.607 161.686V171.734C181.607 172.374 181.692 172.801 181.863 173.014C182.034 173.185 182.567 173.334 183.463 173.462L191.143 174.486C192.252 174.614 193.212 174.849 194.023 175.19C194.834 175.489 195.516 175.958 196.071 176.598C197.308 177.964 197.927 180.588 197.927 184.47C197.927 188.566 196.882 191.425 194.791 193.046C192.956 194.412 190.311 195.137 186.855 195.222V184.854ZM184.167 195.286C180.754 195.244 177.767 195.03 175.207 194.646L171.559 194.07V185.878C173.266 186.049 175.57 186.22 178.471 186.39C180.092 186.476 181.244 186.518 181.927 186.518H184.167V195.286Z" fill="white"/>
<path fill-rule="evenodd" clip-rule="evenodd" d="M59.7091 1.52642C51.929 4.39319 44.9734 13.3985 35.0122 33.5017L29.9979 43.6184L29.4994 48.8325L29 54.0477L30.7966 57.397L32.5923 60.7454L34.7615 61.2927C35.9546 61.5932 38.3062 63.7982 39.9869 66.1924C43.9388 71.8224 49.0651 75.1568 56.8343 77.1499L63.0804 78.752L68.0312 77.6853C70.7544 77.0992 73.1268 76.6196 73.3032 76.6196C73.4796 76.6196 74.4369 80.5103 75.4298 85.2647L77.2373 93.9097L79.9179 96.9566C83.2376 100.731 91.6698 105.899 98.7364 108.493C108.388 112.036 109.187 111.361 110.126 98.8681L110.803 89.8529L108.471 88.211C107.187 87.3085 104.691 86.5702 102.924 86.5702H99.7105L98.7195 84.7104C97.3778 82.1919 98.2369 81.5949 103.204 81.5949H107.427L108.985 80.0316L110.542 78.4674L110.491 72.3199C110.463 68.9377 110.102 63.1166 109.689 59.3822L108.937 52.5929L107.611 51.769C106.88 51.3162 102.792 50.3998 98.5263 49.7341L90.77 48.5221L82.7095 49.7052L74.6489 50.8893L72.5283 48.9529C69.1134 45.8344 66.3664 44.7777 61.6782 44.7777H57.2773L56.6975 41.8681C56.0713 38.7247 57.2931 29.607 59.061 24.2297L60.156 20.8963L65.7778 20.8893L71.3986 20.8823L73.6282 17.5936C76.616 13.1875 76.4396 10.5387 72.7819 4.8141L69.706 0L66.5884 0.0696542C64.874 0.108461 61.7782 0.764206 59.7091 1.52642ZM156.66 1.59608C151.5 6.77636 150.299 12.6074 153.401 17.4155L155.631 20.8714L161.232 20.8843L166.833 20.8963L168.011 24.1302C168.658 25.9094 169.436 31.3474 169.739 36.2152L170.291 45.0653L167.545 44.5389C163.763 43.8125 158.741 45.3658 155.201 48.3579L152.231 50.8674L144.246 49.6943L136.259 48.5221L128.503 49.7341C117.166 51.5043 116.728 52.2983 116.56 71.3607L116.488 79.5351L118.404 80.565C119.459 81.1312 122.357 81.5949 124.845 81.5949H129.37V82.8885C129.37 84.993 127.183 86.5702 124.264 86.5702C122.763 86.5702 120.34 87.1175 118.88 87.7851L116.224 89.0001L116.765 98.8681L117.306 108.735L118.631 109.615C121.834 111.74 136.239 106.188 144.144 99.7796C149.998 95.0332 149.514 95.9586 151.628 85.4985L153.455 76.4663L155.534 77.0415C156.677 77.3569 159.229 77.8873 161.204 78.2196L164.795 78.8236L170.488 77.1619C177.978 74.9757 183.201 71.5647 186.893 66.4461C188.548 64.1525 191.145 61.7504 192.664 61.1086L195.426 59.9424L197.158 56.2766L198.891 52.6118L198.216 48.5997C197.391 43.698 187.031 23.0227 180.472 13.1915L175.664 5.98429L169.701 2.99214C163.037 -0.351256 159.027 -0.780127 156.66 1.59608ZM80.2727 16.3737L77.8398 18.8156V28.8567V38.8979L80.2727 41.3397L82.7045 43.7826H92.1088H101.512L104.281 41.3915L107.05 38.9994L107.416 30.9095L107.782 22.8197L106.548 19.8286C105.869 18.1827 104.384 16.1827 103.248 15.3836L101.182 13.9308H91.9433H82.7045L80.2727 16.3737ZM122.737 16.3309L119.956 18.731L119.613 28.2527L119.27 37.7745L122.262 40.7785L125.254 43.7826H134.79H144.325L146.757 41.3397L149.19 38.8979V28.8567V18.8156L146.757 16.3737L144.325 13.9308H134.921H125.517L122.737 16.3309Z" fill="white"/>
</svg>
